<svg width="39" height="37" viewBox="0 0 39 37" fill="none" xmlns="http://www.w3.org/2000/svg">
<path d="M19.5 0C14.8697 0.000186768 10.3906 1.603 6.86406 4.52166C3.33751 7.44032 0.993695 11.4843 0.251983 15.9302C-0.489729 20.376 0.419067 24.9335 2.81576 28.7871C5.21245 32.6408 8.94064 35.5392 13.3332 36.9637C14.3082 37.1297 14.6739 36.5607 14.6739 36.0627C14.6739 35.6122 14.6495 34.1185 14.6495 32.53C9.75011 33.4072 8.48262 31.3682 8.09262 30.3013C7.65987 29.2636 6.97386 28.344 6.09388 27.622C5.41139 27.2664 4.43639 26.3891 6.06949 26.3654C6.69307 26.4312 7.29115 26.6423 7.81305 26.9807C8.33495 27.3192 8.76529 27.775 9.06761 28.3096C9.33431 28.7756 9.69293 29.1859 10.1229 29.5169C10.5529 29.8479 11.0458 30.0931 11.5734 30.2384C12.101 30.3838 12.6529 30.4265 13.1974 30.364C13.742 30.3016 14.2686 30.1352 14.7469 29.8744C14.8313 28.9101 15.2731 28.0086 15.9901 27.3375C11.6513 26.8634 7.11762 25.2273 7.11762 17.9721C7.09022 16.087 7.80536 14.2631 9.11636 12.8745C8.52022 11.2361 8.58997 9.43808 9.31136 7.84803C9.31136 7.84803 10.9444 7.3501 14.6738 9.79224C17.8646 8.93863 21.233 8.93863 24.4238 9.79224C28.1531 7.32641 29.7862 7.84803 29.7862 7.84803C30.5077 9.43806 30.5775 11.2361 29.9812 12.8745C31.2962 14.2607 32.0119 16.0862 31.9799 17.9721C31.9799 25.251 27.4218 26.8634 23.0831 27.3375C23.5485 27.7964 23.9069 28.3472 24.134 28.9527C24.3611 29.5582 24.4516 30.2041 24.3994 30.8466C24.3994 33.3836 24.375 35.4226 24.375 36.0628C24.375 36.5607 24.7406 37.1534 25.7156 36.9638C30.1005 35.5276 33.8179 32.6225 36.2044 28.7668C38.5909 24.9112 39.4911 20.356 38.7442 15.9145C37.9974 11.473 35.6521 7.43423 32.1271 4.51912C28.6021 1.60402 24.1268 0.00234236 19.5 0Z" fill="#1A1A1A"/>
</svg>
